PathFileType	4	(X/Y/Z)	C:\Users\WrightLab\Desktop\Jo\P1.2Trial19.trc
DataRate	CameraRate	NumFrames	NumMarkers	Units	OrigDataRate	OrigDataStartFrame	OrigNumFrames
100.00	100.00	       20	19	mm	100.00	79	       629
Frame#	Time	Headset_Front			Headset_Back			Headset_Left			Headset_Right			Left_Shoulder			Right_Shoulder			Sternum			C7			Left Elbow			Right Elbow			Left Wrist			Right Wrist			Left ASIS			Right ASIS			S2			Left Knee			Right Knee			Left Ankle			Right Ankle			
		X1	Y1	Z1	X2	Y2	Z2	X3	Y3	Z3	X4	Y4	Z4	X5	Y5	Z5	X6	Y6	Z6	X7	Y7	Z7	X8	Y8	Z8	X9	Y9	Z9	X10	Y10	Z10	X11	Y11	Z11	X12	Y12	Z12	X13	Y13	Z13	X14	Y14	Z14	X15	Y15	Z15	X16	Y16	Z16	X17	Y17	Z17	X18	Y18	Z18	X19	Y19	Z19	

79	0.780	-473.40515	1350.31323	-885.18994							-545.87567	1388.36780	-1013.20630	-206.05751	1179.93970	-1039.55249	-611.35297	1210.58887	-1154.13489	-448.68262	1129.37085	-988.52130	-381.85849	1330.68762	-1368.74487	-148.84019	893.39795	-1116.38123				-119.06460	674.20282	-1015.54187	-700.76575	701.43451	-1197.58936	-356.90384	811.96216	-974.20776	-590.56982	819.53510	-1099.96558	-333.29529	872.56140	-1283.83765	-436.11285	438.59863	-930.19519	-704.86432	624.22247	-540.10291	-400.45728	78.67068	-928.38062				
80	0.790	-475.87802	1352.19092	-877.54926							-547.10950	1390.05920	-1005.11121	-209.69290	1182.27222	-1030.78955	-613.90369	1214.10339	-1146.39172	-451.59171	1131.28674	-980.74487	-383.81088	1332.53711	-1362.04639	-152.88776	894.93719	-1105.84863				-123.36046	676.03925	-1006.72369	-704.03082	704.57745	-1188.34998	-360.64999	813.62079	-965.47986	-593.84290	822.54755	-1090.97607	-336.19147	874.17169	-1274.74841	-438.15674	440.60953	-921.81598	-709.80249	626.04529	-526.04279	-399.21844	76.38528	-926.50763				
81	0.800	-477.24255	1352.59058	-869.22412							-549.56195	1391.67749	-995.99249	-212.41418	1183.69507	-1021.20142	-617.08417	1216.82532	-1139.54626	-455.32123	1134.14832	-974.06091	-385.77490	1333.06824	-1352.77332	-156.98282	896.11902	-1096.17407				-126.54897	677.75885	-999.12238	-706.72858	708.08490	-1181.00037	-364.70822	814.81989	-959.46106	-596.83875	823.37030	-1085.91333	-338.95380	875.64740	-1266.63977	-438.18680	441.11414	-915.08264	-715.67480	629.69775	-516.91943	-397.77304	74.86816	-926.23767				
82	0.810	-478.21973	1353.21521	-860.86243							-552.11462	1394.65125	-987.75439	-216.07945	1185.33057	-1012.04333	-619.76764	1218.69617	-1131.05713	-458.74844	1135.29419	-964.99139	-388.18585	1332.77307	-1341.57556	-159.37921	898.06366	-1087.85376				-130.23508	680.12268	-989.46454	-710.41388	710.49512	-1172.26599	-367.79953	816.12885	-950.92401	-601.30255	826.16284	-1078.64539	-341.33395	876.00494	-1257.57251	-438.68921	441.78036	-908.60089				-396.64532	75.28157	-924.31683				
83	0.820	-480.83664	1353.69336	-854.11719							-553.69531	1395.93335	-979.89221	-219.41566	1187.26453	-1004.31073	-622.03632	1220.45313	-1125.31714	-462.61868	1136.73938	-958.12500	-390.77167	1334.39648	-1336.13782	-162.09035	898.85651	-1079.78796				-134.62218	681.52979	-979.69250	-714.61700	713.08057	-1164.80078	-371.12646	818.69873	-940.35480	-603.85889	830.61005	-1062.03271	-343.60834	876.91449	-1250.67664	-439.23199	442.11505	-899.94421				-396.87799	74.03453	-924.03595				
84	0.830	-483.16882	1353.97852	-847.14124							-556.04651	1396.87585	-970.76709	-222.70027	1187.86267	-994.69098	-625.10974	1221.47449	-1117.39465	-465.21176	1138.16760	-951.22534	-393.44803	1333.99280	-1325.65051	-165.86378	900.05597	-1067.82141				-138.35974	683.79938	-969.06970	-719.02612	715.22351	-1156.59753	-374.55588	819.96283	-933.85809	-606.57776	831.03973	-1053.76062	-345.61429	877.07306	-1242.73303	-437.20898	441.15045	-894.50946				-395.63333	71.30235	-925.11627				
85	0.840	-485.15204	1353.88269	-839.94843							-559.00861	1398.65234	-963.12213	-226.58011	1189.81409	-988.29041	-628.79871	1223.21277	-1112.22363	-469.25104	1140.32007	-945.26617	-395.82184	1334.93567	-1319.63757	-170.84712	900.61072	-1048.28076				-142.83682	685.57770	-956.98322	-724.38586	717.58392	-1155.92798	-375.79654	821.42383	-924.16290	-610.66492	832.55066	-1046.73315	-347.68982	876.87305	-1234.50220	-434.50937	439.08038	-888.83490				-395.84177	70.31082	-926.29578				
86	0.850	-487.33109	1353.58228	-833.02954							-561.51715	1399.49170	-955.88922	-229.74747	1191.26294	-981.73230	-631.99048	1224.17517	-1105.77173	-472.90472	1142.16846	-938.34918	-398.78214	1337.00098	-1316.34570	-173.41658	902.04364	-1037.62231	-691.96124	978.70959	-1185.54419	-146.73698	687.67761	-945.76221	-729.78436	717.94971	-1138.31104	-378.79959	823.01166	-916.92572	-613.21826	832.89832	-1039.37402	-350.06564	876.63239	-1226.45435	-433.77200	437.73090	-883.62201				-395.03400	70.14471	-926.73676				
87	0.860	-489.09457	1353.99585	-825.62061							-563.94061	1400.47620	-948.28796	-233.18062	1192.41162	-974.83673	-634.93939	1223.92627	-1098.94458	-476.61023	1144.11316	-932.01410	-401.68640	1336.54749	-1306.32971	-175.47597	903.23834	-1027.32959				-151.65167	689.38354	-932.23279	-735.78223	717.57806	-1126.79688	-381.53891	824.74829	-910.00519	-616.88763	833.94696	-1032.22339	-352.81299	877.92926	-1221.00134	-431.69864	435.03354	-881.12195	-641.36542	391.05737	-1104.23743	-394.85965	68.90315	-928.22870				
88	0.870	-491.84894	1354.26172	-819.35510							-566.82428	1402.18237	-941.03162	-236.24734	1194.37659	-968.14362	-638.54132	1225.49463	-1094.00305	-479.62823	1144.98438	-924.36316	-405.14639	1338.11011	-1301.48120	-178.11099	903.60156	-1016.34424				-156.42982	690.81793	-919.07098	-741.93488	720.06256	-1121.01123	-382.31808	826.19464	-901.81561	-620.36011	834.47858	-1024.14941	-356.25494	875.97339	-1209.24109	-428.20639	434.41025	-876.49982	-651.89154	393.65747	-1079.62170	-394.73758	69.45185	-928.92395				
89	0.880	-492.84830	1353.82532	-811.54828				-339.30301	1412.96216	-942.51599	-570.04370	1403.17798	-933.42847	-239.05623	1195.53918	-961.09808	-642.17529	1225.93420	-1088.45544	-483.82150	1147.57947	-919.20935	-403.38480	1277.42627	-1133.34167	-181.23972	905.06586	-1006.53467				-161.30258	693.46417	-905.50861	-748.01282	720.17047	-1110.77686	-385.48016	826.80096	-893.42761	-622.65411	834.49695	-1016.28845	-359.32483	876.73816	-1202.43958	-426.23563	432.94620	-871.80652	-663.35339	391.66049	-1065.50403	-393.72482	69.74768	-932.49829				
90	0.890	-496.70786	1354.50208	-804.81909				-342.86655	1414.26196	-935.47662	-572.69818	1404.35950	-925.46039	-242.23502	1196.84741	-954.90015	-645.81458	1226.42603	-1082.31506	-486.68176	1148.79114	-911.52332	-406.93082	1278.73010	-1126.52649	-183.75304	906.33344	-996.01208				-166.53207	695.41998	-891.96973	-754.85107	720.57574	-1101.49231	-385.66980	828.70294	-885.38800	-625.38806	834.74579	-1007.46454	-363.69376	877.04773	-1193.11548	-423.34961	430.77939	-868.08435	-676.43298	394.41714	-1048.29053	-394.07413	69.28082	-933.72711				
91	0.900	-500.28958	1356.02979	-798.19073				-345.70776	1415.37573	-929.06396	-575.18024	1405.09131	-917.97766	-245.69432	1198.48889	-948.30304	-648.86456	1226.60071	-1075.17285	-490.09442	1150.16699	-905.21997	-410.71524	1279.82813	-1120.31714	-186.24857	907.02063	-985.41479				-171.06955	697.31720	-877.72754	-766.52026	716.75482	-1103.29053	-388.31229	829.87134	-878.43848	-628.17834	835.70758	-998.49152	-367.07065	878.62891	-1187.40845	-420.50070	428.65060	-865.42450	-691.09100	404.48380	-1017.18024	-394.20099	68.34132	-934.97119				
92	0.910	-501.06787	1355.29736	-791.01971				-349.37463	1416.67529	-923.81543	-578.80573	1406.53394	-911.02216	-248.69408	1200.33691	-943.62189	-652.43445	1227.74939	-1069.90649	-491.88290	1150.88757	-899.02509	-414.59882	1281.16931	-1113.80432	-188.46967	909.38593	-976.11432				-176.19055	700.35303	-864.06384	-772.50946	717.72827	-1095.20679	-389.57474	832.15686	-870.99481	-630.87231	836.08661	-988.51648	-370.34793	881.72156	-1184.66223	-417.22491	428.36627	-862.22491	-700.05786	411.08563	-1000.23706	-393.69720	68.82943	-935.69666				
93	0.920	-504.55112	1357.33740	-784.89789				-352.89761	1417.76514	-917.22211	-582.24457	1407.45667	-903.52350	-252.17331	1202.92566	-939.67242	-656.15961	1227.98401	-1063.16980	-494.75165	1152.14026	-891.65131	-418.52350	1282.26575	-1107.39563	-191.42610	910.74384	-968.44965				-181.90837	702.54932	-850.20746	-777.98340	719.06592	-1088.79053	-391.65182	833.67139	-864.83295	-633.34131	836.62128	-979.45081	-375.10864	880.74133	-1174.35620	-414.47562	426.59027	-860.32593	-705.98108	416.13498	-983.41364	-393.22983	68.54431	-935.07904				
94	0.930	-507.40225	1357.45349	-777.83258				-356.12057	1419.15894	-910.53308	-585.87262	1407.79517	-895.89746	-254.95697	1204.70691	-933.90588	-659.60553	1228.72681	-1056.21167	-497.64035	1153.47095	-885.55237	-422.53922	1283.56494	-1101.14233	-194.47490	911.51508	-959.81158				-187.47104	705.19312	-837.42401	-783.07056	719.17426	-1081.19629	-391.89218	835.16949	-855.08514	-636.37256	837.00531	-969.94952	-379.28769	880.99396	-1167.29407	-412.24277	424.83289	-856.02417	-710.19977	420.68588	-966.16827	-393.39874	68.42256	-935.10364				
95	0.940	-511.56552	1358.72302	-770.33783				-359.52646	1420.11987	-904.62708	-589.28552	1408.86560	-888.87140	-258.06912	1206.14832	-926.98999	-663.97205	1229.49707	-1049.01526	-499.91232	1155.12634	-878.18787	-426.56839	1284.67786	-1094.74011	-197.30956	913.40094	-949.87415				-194.17937	707.44269	-823.72113	-787.99396	720.16010	-1073.93469	-393.67395	835.60938	-849.06390	-638.64777	837.87207	-960.86841	-383.25906	882.50629	-1162.13489	-409.58600	424.21353	-853.86487	-714.24078	426.37689	-950.94818	-393.99850	68.43478	-934.92139				
96	0.950	-513.03387	1358.75806	-763.07611				-363.19739	1420.71729	-897.17542	-592.28778	1409.56677	-881.76270	-260.91190	1207.82141	-920.88428	-667.80359	1229.85510	-1041.54724	-502.43353	1155.65637	-871.23907	-430.61862	1285.57727	-1087.91919	-199.88786	915.85229	-944.36365				-200.24535	711.21838	-810.48248	-792.20160	721.77881	-1067.24927	-394.20700	838.95459	-838.59302	-641.34906	837.82654	-951.57990	-387.30759	886.04834	-1159.37927	-407.42615	423.53772	-850.25439	-718.54779	431.12375	-936.55182	-393.99237	68.43874	-934.92029				
97	0.960	-516.99670	1359.29102	-756.39819				-367.05807	1421.89392	-891.32184	-595.89954	1410.47998	-874.71381	-264.45361	1209.50061	-915.52557	-670.41180	1229.76868	-1033.42932	-505.75201	1156.26013	-864.52551	-434.39111	1286.95850	-1082.46204	-202.78329	917.26306	-937.25464				-204.89958	715.37506	-797.45233	-793.37177	725.69293	-1046.61462	-395.15503	839.32831	-832.36896	-644.60815	838.91217	-942.52844	-391.90463	886.70245	-1153.13599	-406.76791	423.16434	-847.59412	-723.91260	434.96899	-921.67212	-393.53152	68.31509	-935.11841				
98	0.970	-519.33606	1359.43799	-749.29620				-370.79755	1422.65637	-885.62292	-599.47577	1410.00171	-866.60327	-267.57571	1210.77771	-909.36554	-674.23871	1229.94324	-1025.86938	-508.64471	1158.58862	-858.04102	-438.28461	1286.90808	-1075.21069	-206.18854	918.36633	-928.79901				-211.11644	718.24969	-785.76727	-797.13770	726.78754	-1041.50903	-395.83694	840.95038	-824.93048	-646.92938	838.92822	-933.88318	-396.15073	887.47278	-1146.88818	-405.72357	421.82901	-844.58490	-727.79352	439.89484	-907.97534	-393.51230	67.75974	-935.41467				
